<svg width="98" height="32" viewBox="0 0 98 32" fill="none" xmlns="http://www.w3.org/2000/svg">
<path d="M57.638 9.33639C56.3579 7.49177 54.325 6.4 51.9155 6.4C47.6237 6.4 44.6496 9.78798 44.6496 14.6823C44.6496 19.5763 47.6237 22.9649 51.9155 22.9649C54.4757 22.9649 56.6592 21.7598 57.8263 19.7272L58.1652 22.5883H61.7039V0H57.638V9.33639ZM38.5885 9.97627C38.5885 16.8285 37.5721 19.0117 34.673 19.0117C32.753 19.0117 31.4356 18.0706 31.4356 16.0377V11.1437C31.4356 8.13165 29.7413 6.4 26.8049 6.4C24.1318 6.4 22.3998 7.86804 21.6473 10.9551L20.2163 16.9411C19.84 18.4848 19.0495 19.3883 17.4685 19.3883C15.9248 19.3883 15.0213 18.5225 15.0213 16.9411V6.77627H11.4824L9.86336 14.9459C9.18582 18.3715 8.28233 19.3883 6.47505 19.3883C4.89402 19.3883 4.06554 18.5975 4.06554 16.9411V6.77627H0V16.9411C0 20.5551 2.22122 22.9649 6.09878 22.9649C8.88455 22.9649 10.8425 21.7225 11.708 19.4259C12.5365 21.7225 14.4188 22.9649 17.4685 22.9649C20.8188 22.9649 23.2283 21.3835 24.2071 17.3177L25.7131 10.9551C25.9011 10.2022 26.1647 9.97627 26.6163 9.97627C27.1059 9.97627 27.3695 10.2775 27.3695 10.9551V16.0377C27.3695 20.1788 29.8163 22.5883 33.7319 22.5883C35.0496 22.5883 36.066 22.3247 36.8569 21.7975C35.4635 24.5459 33.2423 26.8047 29.9673 28.8L32.3011 32C39.7556 27.2187 42.6544 21.2329 42.6544 9.97627V6.77627H38.5885V9.97627ZM72.0944 6.4C67.2381 6.4 63.8877 9.86361 63.8877 14.7199C63.8877 19.6139 67.351 22.9649 72.3204 22.9649C74.8805 22.9649 77.2524 22.0611 78.8337 20.5177L76.9138 17.8446C75.5581 18.8987 73.9017 19.5013 72.3204 19.5013C69.9865 19.5013 68.3298 18.2212 67.9912 16.1503H79.6992C79.8125 15.5484 79.8502 14.9082 79.8502 14.381C79.8502 9.52468 76.7628 6.4 72.0944 6.4ZM91.3325 6.4C88.923 6.4 87.0407 7.49177 85.8736 9.41171L85.5724 6.77627H82.0337V22.5883H86.0996V14.7199C86.0996 11.7835 87.5676 9.97627 89.9395 9.97627C92.0101 9.97627 93.3278 11.3693 93.3278 13.6285V22.5883H97.3936V13.1389C97.3936 8.99747 95.0597 6.4 91.3325 6.4ZM72.0944 9.78798C74.278 9.78798 75.7087 11.106 75.9349 13.1389H68.1039C68.5558 10.9927 69.9865 9.78798 72.0944 9.78798ZM53.1956 19.3883C50.5981 19.3883 48.7908 17.4684 48.7908 14.6823C48.7908 11.8965 50.5981 9.97627 53.1956 9.97627C55.7931 9.97627 57.6004 11.8965 57.6004 14.6823C57.6004 17.4684 55.7931 19.3883 53.1956 19.3883Z" fill="#FF0008"/>
</svg>
